<svg xmlns="http://www.w3.org/2000/svg" viewBox="0 0 46.74 64.28"><defs><style>.cls-1,.cls-2{fill:#deb666;}.cls-2{fill-rule:evenodd;}</style></defs><title>logo_big_2</title><g id="Layer_2" data-name="Layer 2"><g id="Layer_1-2" data-name="Layer 1"><path class="cls-1" d="M9.11,64.2V61.54H6.28V64.2H4.54V57.35H6.28v2.82H9.11V57.35h1.74V64.2Z"></path><path class="cls-1" d="M14,57.41a.89.89,0,1,1-.89-.89A.86.86,0,0,1,14,57.41ZM12.22,64.2V58.93H13.9V64.2Z"></path><path class="cls-1" d="M24.2,60.87V64.2H22.52V61.34a.9.9,0,0,0-.91-1,1.11,1.11,0,0,0-1,1.26V64.2H18.89V61.34a.89.89,0,0,0-.9-1,1.12,1.12,0,0,0-1,1.26V64.2H15.26V58.93h1.68v.87a1.91,1.91,0,0,1,1.74-.95A1.76,1.76,0,0,1,20.44,60a1.92,1.92,0,0,1,1.86-1.19A1.83,1.83,0,0,1,24.2,60.87Z"></path><path class="cls-1" d="M30.07,60.76V64.2H28.42v-.61a1.9,1.9,0,0,1-1.61.69A1.63,1.63,0,0,1,25,62.63c0-1,.71-1.59,2-1.6h1.39V61c0-.52-.34-.83-1-.83a3.75,3.75,0,0,0-1.57.44l-.48-1.12a5.55,5.55,0,0,1,2.44-.59C29.22,58.85,30.06,59.56,30.07,60.76Zm-1.66,1.65v-.47H27.34c-.51,0-.76.18-.76.57s.27.62.74.62A1.07,1.07,0,0,0,28.41,62.41Z"></path><path class="cls-1" d="M33,59.82a1.92,1.92,0,0,1,1.71-1v1.52c-1-.08-1.62.38-1.71,1.12V64.2H31.28V58.93H33Z"></path><path class="cls-1" d="M40,60.76V64.2H38.32v-.61a1.9,1.9,0,0,1-1.61.69,1.63,1.63,0,0,1-1.81-1.65c0-1,.71-1.59,2-1.6h1.39V61c0-.52-.34-.83-1-.83a3.75,3.75,0,0,0-1.57.44l-.48-1.12a5.59,5.59,0,0,1,2.45-.59C39.12,58.85,40,59.56,40,60.76Zm-1.66,1.65v-.47H37.25c-.51,0-.77.18-.77.57s.28.62.75.62A1.07,1.07,0,0,0,38.31,62.41Z"></path><path class="cls-1" d="M42.51,63.46a.78.78,0,0,1-.82.82.82.82,0,1,1,.82-.82Z"></path><path class="cls-1" d="M28,34V25.41H18.78V34H13.14V11.85h5.64V21H28V11.85h5.63V34Z"></path><path class="cls-1" d="M16.86,42.37h0v0l0,0h0a3.39,3.39,0,0,0-1.14-1.88,11.55,11.55,0,0,0-2.48-1.54A2.34,2.34,0,0,0,14,41a5,5,0,0,0,1.86,1.12,11,11,0,0,0-2.23-.3,3.55,3.55,0,0,0-2.29.66,7,7,0,0,0,3.37.9A3,3,0,0,0,16.86,42.37Z"></path><path class="cls-1" d="M12.33,40.72v0h0a3.26,3.26,0,0,0-.54-2.06,9.88,9.88,0,0,0-1.88-2,2.42,2.42,0,0,0,.14,2.14,4.49,4.49,0,0,0,1.4,1.47,10.15,10.15,0,0,0-1.95-.75,3.37,3.37,0,0,0-2.28.18,6.26,6.26,0,0,0,2.87,1.56,2.7,2.7,0,0,0,2.22-.49Z"></path><path class="cls-1" d="M8.59,38.17h0v0h0a3.27,3.27,0,0,0,0-2.12,9.43,9.43,0,0,0-1.3-2.35A2.51,2.51,0,0,0,7,35.78a4.41,4.41,0,0,0,1,1.73,8,8,0,0,0-1.65-1.14,3.15,3.15,0,0,0-2.2-.3A6.07,6.07,0,0,0,6.4,38.19,2.56,2.56,0,0,0,8.59,38.17Z"></path><path class="cls-1" d="M5.7,34.92v0h0a3.46,3.46,0,0,0,.47-2.07,8.57,8.57,0,0,0-.75-2.57,2.6,2.6,0,0,0-.81,2,4.45,4.45,0,0,0,.55,1.88,7.79,7.79,0,0,0-1.34-1.45,3.08,3.08,0,0,0-2.06-.76,6.14,6.14,0,0,0,1.8,2.56A2.46,2.46,0,0,0,5.7,34.92Z"></path><path class="cls-1" d="M3.63,31.15h0a3.37,3.37,0,0,0,.9-1.92,8.51,8.51,0,0,0-.22-2.67,2.5,2.5,0,0,0-1.18,1.77,4.51,4.51,0,0,0,.15,2,8.31,8.31,0,0,0-1-1.71A3.1,3.1,0,0,0,.45,27.38a6.3,6.3,0,0,0,1.24,2.89A2.46,2.46,0,0,0,3.63,31.15Z"></path><path class="cls-1" d="M2.39,27h0a3.42,3.42,0,0,0,1.25-1.69A8.66,8.66,0,0,0,4,22.66a2.43,2.43,0,0,0-1.5,1.48,4.63,4.63,0,0,0-.24,1.95A8.33,8.33,0,0,0,1.6,24.2,3.31,3.31,0,0,0,0,22.65a6.41,6.41,0,0,0,.66,3.1A2.53,2.53,0,0,0,2.39,27Z"></path><path class="cls-1" d="M2,22.71H2a3.28,3.28,0,0,0,1.55-1.39,8.4,8.4,0,0,0,.8-2.54,2.33,2.33,0,0,0-1.75,1.13A4.46,4.46,0,0,0,2,21.77a8.1,8.1,0,0,0-.29-2A3.36,3.36,0,0,0,.47,17.92a6.31,6.31,0,0,0,.06,3.17A2.56,2.56,0,0,0,2,22.71Z"></path><path class="cls-1" d="M2.38,18.4h.05a3.18,3.18,0,0,0,1.78-1,8.6,8.6,0,0,0,1.28-2.32,2.31,2.31,0,0,0-1.94.73,4.59,4.59,0,0,0-.95,1.7,8.11,8.11,0,0,0,.11-2,3.4,3.4,0,0,0-.88-2.09,6.34,6.34,0,0,0-.56,3.12A2.72,2.72,0,0,0,2.38,18.4Z"></path><path class="cls-1" d="M3.61,14.28h0v0a3.06,3.06,0,0,0,2-.63,8.33,8.33,0,0,0,1.74-2,2.31,2.31,0,0,0-2.06.3A4.37,4.37,0,0,0,4,13.42a9.13,9.13,0,0,0,.51-1.94A3.44,3.44,0,0,0,4.1,9.25a6.2,6.2,0,0,0-1.19,2.93,2.64,2.64,0,0,0,.71,2.08Z"></path><path class="cls-1" d="M5.67,10.5h0l0,0h0a3.17,3.17,0,0,0,2.06-.2A9.4,9.4,0,0,0,10,8.74a2.4,2.4,0,0,0-2.12-.15A4.53,4.53,0,0,0,6.25,9.74,8.74,8.74,0,0,0,7.19,8a3.38,3.38,0,0,0,.09-2.27A6,6,0,0,0,5.43,8.3a2.59,2.59,0,0,0,.25,2.18Z"></path><path class="cls-1" d="M8.55,7.24h0v0h0a3.33,3.33,0,0,0,2.11.24,9.94,9.94,0,0,0,2.6-1.06,2.56,2.56,0,0,0-2.12-.6,4.76,4.76,0,0,0-1.88.78A9.47,9.47,0,0,0,10.69,5.1a3.35,3.35,0,0,0,.67-2.19A6.38,6.38,0,0,0,8.83,5a2.56,2.56,0,0,0-.27,2.19Z"></path><path class="cls-1" d="M29.88,42.37h0v0h0A3.39,3.39,0,0,1,31,40.44a11.6,11.6,0,0,1,2.47-1.54,2.34,2.34,0,0,1-.7,2.05,5,5,0,0,1-1.85,1.12,11,11,0,0,1,2.23-.3,3.54,3.54,0,0,1,2.28.66,7,7,0,0,1-3.37.9A3,3,0,0,1,29.88,42.37Z"></path><path class="cls-1" d="M34.41,40.72v0h0a3.33,3.33,0,0,1,.54-2.06,10.19,10.19,0,0,1,1.88-2,2.43,2.43,0,0,1-.13,2.14,4.49,4.49,0,0,1-1.4,1.47,9.9,9.9,0,0,1,2-.75,3.32,3.32,0,0,1,2.27.18,6.26,6.26,0,0,1-2.87,1.56,2.72,2.72,0,0,1-2.22-.49Z"></path><path class="cls-1" d="M38.14,38.17h0v0h0a3.42,3.42,0,0,1,0-2.12,9,9,0,0,1,1.31-2.35,2.51,2.51,0,0,1,.37,2.11,4.43,4.43,0,0,1-1,1.73,8.07,8.07,0,0,1,1.66-1.14,3.12,3.12,0,0,1,2.19-.3,6.07,6.07,0,0,1-2.34,2.12A2.56,2.56,0,0,1,38.14,38.17Z"></path><path class="cls-1" d="M41,34.92v0l0,0h0a3.44,3.44,0,0,1-.48-2.07,9.26,9.26,0,0,1,.75-2.57,2.56,2.56,0,0,1,.81,2,4.31,4.31,0,0,1-.55,1.88,8.53,8.53,0,0,1,1.34-1.45,3.1,3.1,0,0,1,2.06-.76,6,6,0,0,1-1.8,2.56A2.44,2.44,0,0,1,41,34.92Z"></path><path class="cls-1" d="M43.1,31.15h0a3.38,3.38,0,0,1-.89-1.92,8.65,8.65,0,0,1,.21-2.67,2.53,2.53,0,0,1,1.19,1.77,4.67,4.67,0,0,1-.15,2,8.25,8.25,0,0,1,1-1.71,3.16,3.16,0,0,1,1.86-1.18A6.07,6.07,0,0,1,45,30.27,2.44,2.44,0,0,1,43.1,31.15Z"></path><path class="cls-1" d="M44.35,27H44.3a3.3,3.3,0,0,1-1.25-1.69,8.66,8.66,0,0,1-.3-2.66,2.43,2.43,0,0,1,1.5,1.48,4.62,4.62,0,0,1,.23,1.95,8.33,8.33,0,0,1,.65-1.89,3.3,3.3,0,0,1,1.6-1.55,6.41,6.41,0,0,1-.66,3.1A2.53,2.53,0,0,1,44.35,27Z"></path><path class="cls-1" d="M44.76,22.71h0a3.23,3.23,0,0,1-1.55-1.39,8.4,8.4,0,0,1-.8-2.54,2.35,2.35,0,0,1,1.75,1.13,4.61,4.61,0,0,1,.6,1.86,8.06,8.06,0,0,1,.28-2,3.41,3.41,0,0,1,1.27-1.87,6.47,6.47,0,0,1-.06,3.18A2.59,2.59,0,0,1,44.76,22.71Z"></path><path class="cls-1" d="M44.35,18.4h0a3.15,3.15,0,0,1-1.78-1,8.3,8.3,0,0,1-1.28-2.32,2.3,2.3,0,0,1,1.93.73,4.32,4.32,0,0,1,1,1.7,8.13,8.13,0,0,1-.1-2,3.42,3.42,0,0,1,.87-2.09,6.34,6.34,0,0,1,.56,3.12A2.65,2.65,0,0,1,44.35,18.4Z"></path><path class="cls-1" d="M43.12,14.28h0l0,0v0a3.07,3.07,0,0,1-2-.63,8.88,8.88,0,0,1-1.74-2,2.32,2.32,0,0,1,2.06.3,4.29,4.29,0,0,1,1.28,1.46,8.57,8.57,0,0,1-.51-1.94,3.4,3.4,0,0,1,.42-2.23,6.06,6.06,0,0,1,1.2,2.93,2.67,2.67,0,0,1-.71,2.08Z"></path><path class="cls-1" d="M41.07,10.5h0v0h0a3.17,3.17,0,0,1-2.06-.2,8.92,8.92,0,0,1-2.18-1.57,2.38,2.38,0,0,1,2.12-.15,4.4,4.4,0,0,1,1.58,1.15A8.73,8.73,0,0,1,39.55,8a3.42,3.42,0,0,1-.1-2.27A6,6,0,0,1,41.31,8.3a2.63,2.63,0,0,1-.25,2.18Z"></path><path class="cls-1" d="M38.18,7.24h0v0h0A3.37,3.37,0,0,1,36,7.51a10.3,10.3,0,0,1-2.6-1.06,2.61,2.61,0,0,1,2.13-.6,4.72,4.72,0,0,1,1.87.78A10,10,0,0,1,36,5.1a3.35,3.35,0,0,1-.67-2.19A6.31,6.31,0,0,1,37.9,5a2.56,2.56,0,0,1,.27,2.19Z"></path><polygon class="cls-2" points="23.32 0 23.79 1.44 25.29 1.43 24.07 2.32 24.54 3.75 23.32 2.86 22.1 3.75 22.57 2.32 21.35 1.43 22.86 1.44 23.32 0 23.32 0"></polygon><polygon class="cls-2" points="19.31 1.41 19.72 2.66 21.04 2.66 19.97 3.43 20.38 4.68 19.31 3.91 18.25 4.68 18.66 3.43 17.59 2.66 18.91 2.66 19.31 1.41 19.31 1.41"></polygon><polygon class="cls-2" points="27.37 1.41 27.77 2.66 29.09 2.66 28.02 3.43 28.43 4.68 27.37 3.91 26.3 4.68 26.71 3.43 25.64 2.66 26.96 2.66 27.37 1.41 27.37 1.41"></polygon><polygon class="cls-2" points="15.59 3.09 15.91 4.09 16.97 4.09 16.11 4.71 16.44 5.71 15.59 5.09 14.74 5.71 15.06 4.71 14.21 4.09 15.27 4.09 15.59 3.09 15.59 3.09"></polygon><polygon class="cls-2" points="31.14 3.09 31.47 4.09 32.52 4.09 31.67 4.71 32 5.71 31.14 5.09 30.3 5.71 30.62 4.71 29.77 4.09 30.82 4.09 31.14 3.09 31.14 3.09"></polygon><polygon class="cls-2" points="23.37 41.93 23.71 43 24.84 43 23.93 43.66 24.28 44.73 23.37 44.07 22.46 44.73 22.81 43.66 21.89 43 23.02 43 23.37 41.93 23.37 41.93"></polygon></g></g></svg>