<?xml version="1.0" encoding="UTF-8"?> <svg xmlns="http://www.w3.org/2000/svg" viewBox="0 0 66.53 13.6"><defs><style>.cls-1{fill:#fff;}</style></defs><title>logo_light</title><g id="Layer_2" data-name="Layer 2"><g id="Layer_1-2" data-name="Layer 1"><path class="cls-1" d="M8,13.46V8.8h-5v4.66H0v-12H3.05V6.4H8V1.46h3.05v12Z"></path><path class="cls-1" d="M16.51,1.56a1.56,1.56,0,1,1-3.12,0,1.56,1.56,0,1,1,3.12,0Zm-3.05,11.9V4.22h2.95v9.24Z"></path><path class="cls-1" d="M34.46,7.63v5.83H31.51v-5a1.57,1.57,0,0,0-1.6-1.77,1.94,1.94,0,0,0-1.8,2.19v4.58h-3v-5a1.55,1.55,0,0,0-1.58-1.77,2,2,0,0,0-1.83,2.19v4.58H18.79V4.22h2.95V5.75a3.35,3.35,0,0,1,3.05-1.67,3.08,3.08,0,0,1,3.08,2.09,3.37,3.37,0,0,1,3.26-2.09A3.23,3.23,0,0,1,34.46,7.63Z"></path><path class="cls-1" d="M44.74,7.43v6H41.85V12.4A3.38,3.38,0,0,1,39,13.6a2.86,2.86,0,0,1-3.17-2.9c0-1.75,1.25-2.78,3.54-2.79h2.44V7.77c0-.91-.6-1.46-1.8-1.46a6.61,6.61,0,0,0-2.76.77l-.84-1.95a9.72,9.72,0,0,1,4.28-1C43.25,4.08,44.73,5.33,44.74,7.43Zm-2.91,2.89V9.5H40c-.89,0-1.34.31-1.34,1s.48,1.09,1.31,1.09A1.87,1.87,0,0,0,41.83,10.32Z"></path><path class="cls-1" d="M49.82,5.78a3.38,3.38,0,0,1,3-1.7V6.76c-1.72-.16-2.85.65-3,2v4.75h-3V4.22h3Z"></path><path class="cls-1" d="M62.09,7.43v6h-2.9V12.4a3.36,3.36,0,0,1-2.82,1.2,2.86,2.86,0,0,1-3.17-2.9c0-1.75,1.25-2.78,3.54-2.79h2.44V7.77c0-.91-.6-1.46-1.8-1.46a6.61,6.61,0,0,0-2.76.77l-.84-1.95a9.72,9.72,0,0,1,4.28-1C60.6,4.08,62.07,5.33,62.09,7.43Zm-2.91,2.89V9.5H57.31c-.89,0-1.34.31-1.34,1s.48,1.09,1.3,1.09A1.87,1.87,0,0,0,59.18,10.32Z"></path><path class="cls-1" d="M66.53,12.16a1.38,1.38,0,0,1-1.44,1.44,1.36,1.36,0,0,1-1.42-1.44,1.35,1.35,0,0,1,1.42-1.42A1.37,1.37,0,0,1,66.53,12.16Z"></path></g></g></svg> 